<?xml version='1.0' encoding='utf-8'?>
<svg xmlns="http://www.w3.org/2000/svg" enable-background="new 0 0 5000 465.825" version="1.1" viewBox="0 0 5e3 465.82"> <path d="m2381.6 338.24c-92.651 30.8-180.9 34.467-265.6 21.451-203.31-31.244-278.91-157.84-400.34-211.39-17.385-7.667-34.901-5.286-35.583-17.179-0.483-8.417 7.453-11.826 14.57-14.419 18.507-6.744 37.639-10.414 57.191-12.754 62.212-7.446 112.93 18.131 159.81 54.897 41.964 32.907 88.767 104.76 147.73 140.52 69.825 42.343 171.02 39.832 251.78 24.36 74.644-14.299 164.92-55.255 177.01-63.51 2.67-1.823 8.098-2.51 6.268-7.49-1.384-3.766-5.624-2.337-8.74-2.338-41.267-0.016-389.66-0.951-408.04-1.27-9.728-0.168-17.43-3.074-23.988-9.993-22.061-23.274-23.378-22.505-22.519-25.135 0.856-2.62 3.356-1.542 5.257-1.445 73.914 3.766 147.84-1.22 221.74 0.131 67.417 1.232 134.8-1.154 202.2-1.031 7.729 0.014 15.452 1.275 23.187 1.808 25.112 1.731-40.619-38.343-104.98-38.474-407.65-0.825-381.36 0.913-386.19-3.816-29.54-28.929-31.409-27.687-30.142-31.14 1.485-4.047-24.389-0.99 436.69-7.546 29.855-0.424 101.18-11.902 166.9 5.965 42.811 11.639 34.231 41.089 44.242 28.152 29.577-38.225 95.847-38.208 144.17-33.492 82.358 8.036 497.79 2.488 500.58 8.127 1.183 2.39-1.142 3.426-2.869 4.477-28.708 17.468-22.794 29.043-43.414 29.038-392.55-0.091-418.06-5.906-483.36 28.283-3.118 1.633-7.691 3.953-6.669 7.829 1.225 4.647 6.31 2.223 9.665 2.28 125.18 2.142 83.906-2.349 439.91 0.415 2.748 0.021 6.578-1.088 7.977 1.524 1.988 3.711-2.333 5.68-4.293 7.883-5.697 6.401-11.895 12.353-17.841 18.535-3.942 4.098-8.551 5.364-14.313 5.322-85.434-0.624-385.61 1.347-416.37-1.368-1.622-0.143-3.296-0.226-4.896 4e-3 -3.032 0.436-7.291-1.43-8.663 2.529-1.589 4.584 2.915 6.305 5.777 8.199 20.199 13.372 42.379 22.984 64.488 32.48 102.97 44.23 230.83 59.326 314.64 33.59 52.463-16.111 115.66-66.472 156.89-115.58 44.422-52.906 100.96-84.552 169.18-94.159 34.145-4.808 67.561 1.563 99.934 12.989 4.625 1.632 11.124 1.844 10.479 9.585-1.99 23.898-33.961-6.849-152.47 88.461-38.662 31.093-80.897 56.716-123.37 81.778-33.136 19.554-69.99 31.827-107 41.781-98.903 26.596-195.38 30.53-321.18-11.102-12.983-4.297-25.009-11.629-39.713-11.735 12.677 7.455 24.886 15.891 38.109 22.201 72.654 34.673 149.89 53.423 229.46 62.051 40.118 4.35 80.513 2.572 121-0.181 101.48-6.901 192.99-49.902 276.47-106.77 156-106.25 296.65-262.41 437.12-136.15 19.173 17.234 29.279 41.056 38.706 64.669 2.632 6.592-0.288 10.517-7.685 9.496-9.282-1.282-18.504-2.995-27.754-4.511-190.76-31.267-335.05 168.81-695.28 206.3-52.889 5.506-105.04 0.586-157.45-5.896-116.14-14.361-181.05-41.684-239-74.278-22.03-12.39-44.854-23.454-65.602-37.964-47.727-33.377-92.173-70.284-124.81-119.48-6.08-9.165-9.667-0.284-11.003 2.772-21.646 49.5-191.62 181.8-358.63 215.77-351.82 71.565-549.3-79.941-750.9-162.04-89.531-36.459-164.54-34.835-193.83-25.91-4.496 1.37-7.995 0.369-11.072-2.899-3.205-3.405-3.769-7.261-1.285-11.205 23.373-37.114 27.029-75.325 96.57-98.379 43.508-14.424 86.502-8.363 128.72 4.886 19.769 6.203 37.592 17.563 55.682 27.873 83.766 47.742 169.93 151.22 302.19 213.58 46.03 21.703 95.254 30.958 144.73 40.124 46.156 8.55 91.827 3.628 137.78-0.953 58.452-5.826 115.07-19.353 170.39-38.52 17.699-6.133 34.653-14.466 51.774-22.179 3.856-1.737 8.633-3.29 9.595-8.623 2.222 0.439 4.307 0.351 5.921-1.542 0.384 0.411 1.126 0.079-5.651 1.706z"/> <path d="m797.32 243.24c-446.65 0-517.7 6.191-617.51-20.772-46.647-12.602-91.142-30.699-126.77-65.85-11.212-11.063-25.408-19.124-36.042-31.114-16.95-19.112-25.839-32.644-4.312-44.377 28.342-15.447 57.262-29.524 90.16-32.954 22.071-2.301 47.895 10.703 57.895 30.63 12.725 25.356 28.088 79.656 88.834 110.62 48.915 24.929 100.26 19.903 289.93 19.819 66.562-0.029 133.17-1.542 199.67 0.48 71.094 2.162 142.05-2.059 213.09-1.198 258.55 3.136 250.11-6.267 241.16 11.231-7.517 14.697-17.783 21.414-35.698 21.122-96.148-1.572-317.64-0.158-360.42 2.368z"/> <path d="m910.95 170.72c-43.651 0.939-87.381-2.19-131.05-1.651-97.042 1.2-152.65-12.856-201.78-31.585-40.689-15.511-71.556-43.07-100.91-73.37-11.423-11.791-11.125-24.666 3.394-32.315 34.092-17.96 68.003-37.928 109.52-30.02 8.733 1.663 17.932 0.794 26.904 1.309 27.211 1.564 18.802 28.272 34.302 63.96 14.256 32.823 39.289 51.731 73.088 61.131 36.072 10.033 72.873 7.36 109.5 7.447 425.95 1.012 407.37-2.444 410.5 3.821 2.124 4.253-2.285 7.342-4.126 10.847-8.299 15.794-20.734 22.431-38.99 20.678-2.193-0.209-230.06-1.548-290.34-0.252z"/> <path d="m4210.5 146.69c254.27 2.202 329.12 15.464 359.18-87.228 2.855-9.754 6.979-19.15 8.09-29.458 0.696-6.457 5.968-9.079 11.473-11.476 12.987-5.656 26.587-3.82 39.922-3.316 36.708 1.388 71.728 9.672 103.74 28.358 13.587 7.932 15.036 16.944 4.32 28.688-123.02 134.82-284.77 102.94-634.38 106.4-35.086 0.348-70.195-1.288-105.29-2.156-6.688-0.165-23.767-19.007-22.929-25.397 0.854-6.511 6.526-5.373 10.662-5.099 31.995 2.123 90.711-0.486 225.21 0.679z"/> <path d="m1408.8 351.51c-201.31 4.248-289.85 0.92-386.13 69.691-28.929 20.665-29.185 34.078-37.423 39.827-12.901 9.004-25.292 3.988-27.357-11.7-3.08-23.4 1.058-46.583 6.633-69.053 15.874-63.972 67.79-108.3 128.63-98.644 66.98 10.636 79.42 35.092 203.38 37.963 68.569 1.588 137.16-1.431 205.74 1.624 10.883 0.485 21.96 0.801 32.961 0.391 13.109-0.488 9.11 9.971 9.882 16.736 0.806 7.064-0.832 12.705-10.257 12.87-26.124 0.459-52.232-3.124-78.332-0.472-15.925 1.618-31.823 0.432-47.723 0.767z"/> <path d="m4090.3 297.56c33.995-13.741 84.403-13.698 112.86 15.191 34.848 35.378 50.623 85.898 50.228 134.1-0.055 6.778 1.739 14.146-7.609 17.105-12.167 3.851-21.374 1.846-27.231-7.083-49.814-75.927-167.58-85.762-256.66-94.155-66.083-6.227-78.839-7.993-261.73-10.092-11.388-0.131-20.826-1.798-26.388-13.233-1.723-3.544-3.371-6.525-1.538-10.205 1.802-3.619 5.39-3.041 8.61-3.17 123.1-4.943 297.71 16.705 409.45-28.46z"/> <path d="m4055.4 250.83c-17.839-0.064-27.556-7.313-32.178-24.085-0.923-3.351 0.571-4.653 3.204-5.203 7.699-1.61 750.53 3.798 758.19 3.875 122.04 1.229 158.13-7.262 190.46-26.433 6.777-4.019 10.138-3.118 13.67 2.991 2.851 4.931 6.589 9.457 8.764 14.652 6.332 15.118 0.31 27.133-14.965 30.1-29.279 5.689-58.943 8.816-88.694 8.902-33.644 0.097-803.03-4.672-838.46-4.799z"/> </svg>